<svg width="32" height="32" viewBox="0 0 32 32" fill="none" xmlns="http://www.w3.org/2000/svg">
<rect width="32" height="32" fill="white"/>
<path d="M12.9534 19.1112C12.2495 18.7204 11.1509 18.1105 11.1509 18.1105M12.9534 19.1112C11.7451 19.0714 10.8921 19.0765 10.8921 19.0765M12.9534 19.1112C13.3111 17.7761 13.3992 17.4472 13.8592 15.7304M3.2941 16.523L5.35536 16.5576M3.2941 16.523L5.09654 17.5236M3.2941 16.523L5.10607 9.76058C5.39198 8.69356 6.4888 8.06039 7.55579 8.34642L13.3512 9.90002C14.418 10.186 15.0511 11.2824 14.7652 12.3492C14.5626 13.1055 14.3286 13.9786 14.118 14.7645M11.1509 18.1105L9.98623 22.4572M11.1509 18.1105C8.96216 17.2253 7.69533 16.8783 5.35536 16.5576M9.98623 22.4572C7.95975 20.953 6.69872 20.6181 4.19067 20.9043M9.98623 22.4572C7.61296 22.8071 6.35348 22.4979 4.19067 20.9043M4.19067 20.9043L5.35536 16.5576M19.7068 21.4384L22.6046 22.2148M22.0603 12.655L24.9581 13.4314M20.8715 17.0917L23.7692 17.8682M13.8592 15.7304C13.8994 15.5805 13.9424 15.4201 13.9886 15.2474C14.0304 15.0916 14.0737 14.93 14.118 14.7645M13.8592 15.7304L16.6876 20.6294M16.6876 20.6294L16.0406 23.0442C15.7547 24.1111 16.3879 25.2078 17.4548 25.4937L22.2844 26.7878C23.3514 27.0737 24.4481 26.4405 24.7339 25.3736L28.6162 10.8847C28.9021 9.81776 28.2689 8.72108 27.202 8.4352L22.3724 7.1411C21.3054 6.85522 20.2088 7.48839 19.9229 8.55532L19.017 11.9361M16.6876 20.6294L19.017 11.9361M14.118 14.7645L19.017 11.9361" stroke="#505050" stroke-width="2" stroke-linecap="round" stroke-linejoin="round"/>
</svg>
